<svg width="14" height="7" viewBox="0 0 14 7" fill="none" xmlns="http://www.w3.org/2000/svg">
<path id="Vector" d="M4.88032 6.14382L0.290764 1.66462C0.104531 1.48178 0 1.23445 0 0.976639C0 0.718831 0.104531 0.471497 0.290764 0.288658C0.383718 0.197192 0.494309 0.124594 0.616156 0.0750506C0.738003 0.0255075 0.868696 0 1.0007 0C1.13269 0 1.26339 0.0255075 1.38524 0.0750506C1.50708 0.124594 1.61767 0.197192 1.71063 0.288658L6.29018 4.77761C6.38314 4.86908 6.49373 4.94168 6.61557 4.99122C6.73742 5.04076 6.86812 5.06627 7.00011 5.06627C7.13211 5.06627 7.26281 5.04076 7.38465 4.99122C7.5065 4.94168 7.61709 4.86908 7.71005 4.77761L12.2896 0.288658C12.4766 0.1049 12.7307 0.00115143 12.996 0.000236386C13.2613 -0.00067866 13.5162 0.101315 13.7045 0.283779C13.8928 0.466243 13.9991 0.714231 14 0.973189C14.0009 1.23215 13.8964 1.48086 13.7095 1.66462L9.11991 6.14382C8.55746 6.69206 7.79504 7 7.00011 7C6.20519 7 5.44277 6.69206 4.88032 6.14382Z" fill="#2A3E4C"/>
</svg>
