<svg width="23" height="24" viewBox="0 0 23 24" fill="none" xmlns="http://www.w3.org/2000/svg">
<path d="M22.9559 5.61719L14.8887 13.6844C13.9891 14.5817 12.7705 15.0856 11.5 15.0856C10.2295 15.0856 9.01085 14.5817 8.11133 13.6844L0.0440833 5.61719C0.0306667 5.7686 0 5.90565 0 6.0561V17.5561C0.0015217 18.8265 0.506845 20.0444 1.40513 20.9426C2.30341 21.8409 3.5213 22.3462 4.79167 22.3478H18.2083C19.4787 22.3462 20.6966 21.8409 21.5949 20.9426C22.4932 20.0444 22.9985 18.8265 23 17.5561V6.0561C23 5.90565 22.9693 5.7686 22.9559 5.61719Z" fill="#FFF5E7"/>
<path d="M13.5335 12.3305L22.2869 3.57617C21.8629 2.87306 21.2648 2.29108 20.5504 1.88637C19.836 1.48166 19.0293 1.26787 18.2082 1.26562H4.79156C3.97048 1.26787 3.16383 1.48166 2.44942 1.88637C1.735 2.29108 1.13693 2.87306 0.712891 3.57617L9.46631 12.3305C10.0064 12.8685 10.7376 13.1705 11.4999 13.1705C12.2622 13.1705 12.9934 12.8685 13.5335 12.3305Z" fill="#FFF5E7"/>
</svg>
