<svg width="29" height="30" viewBox="0 0 29 30" fill="none" xmlns="http://www.w3.org/2000/svg">
<ellipse cx="14.1103" cy="14.9395" rx="14.1103" ry="14.6329" fill="#FFF5E7"/>
<path d="M14.3164 9.62482C12.3629 9.62482 12.1312 9.63213 11.3599 9.6675C10.5624 9.70408 9.74118 9.88577 9.16013 10.4668C8.5736 11.0533 8.39739 11.8667 8.36081 12.6666C8.32545 13.4379 8.31813 13.6696 8.31813 15.6231C8.31813 17.5766 8.32545 17.8082 8.36081 18.5795C8.39678 19.3727 8.58274 20.2019 9.16013 20.7793C9.74666 21.3659 10.5594 21.5421 11.3599 21.5786C12.1312 21.614 12.3629 21.6213 14.3164 21.6213C16.2699 21.6213 16.5016 21.614 17.2728 21.5786C18.06 21.5427 18.9001 21.3524 19.4726 20.7793C20.0561 20.1958 20.2354 19.3746 20.272 18.5795C20.3073 17.8082 20.3146 17.5766 20.3146 15.6231C20.3146 13.6696 20.3073 13.4379 20.272 12.6666C20.236 11.8764 20.0482 11.0424 19.4726 10.4668C18.8873 9.8815 18.0709 9.70408 17.2728 9.6675C16.5016 9.63213 16.2699 9.62482 14.3164 9.62482ZM14.3164 8.30664C16.3034 8.30664 16.5528 8.31518 17.3332 8.35054C18.4642 8.40236 19.5873 8.71697 20.4049 9.53458C21.2255 10.3552 21.5371 11.4759 21.5889 12.6063C21.6243 13.3867 21.6328 13.636 21.6328 15.6231C21.6328 17.6101 21.6243 17.8595 21.5889 18.6399C21.5371 19.7697 21.2213 20.8958 20.4049 21.7116C19.5848 22.5316 18.4624 22.8438 17.3332 22.8956C16.5528 22.931 16.3034 22.9395 14.3164 22.9395C12.3294 22.9395 12.08 22.931 11.2996 22.8956C10.1692 22.8438 9.0449 22.5286 8.2279 21.7116C7.40663 20.8903 7.09568 19.7703 7.04385 18.6399C7.00849 17.8595 6.99995 17.6101 6.99995 15.6231C6.99995 13.636 7.00849 13.3867 7.04385 12.6063C7.09568 11.4753 7.41089 10.3516 8.2279 9.53458C9.04673 8.71575 10.1722 8.40175 11.2996 8.35054C12.08 8.31518 12.3294 8.30664 14.3164 8.30664Z" fill="#2A3E4C"/>
<path d="M14.6336 11.1836C16.7085 11.1836 18.3906 12.8658 18.3906 14.9406C18.3906 17.0154 16.7085 18.6976 14.6336 18.6976C12.5588 18.6976 10.8767 17.0154 10.8767 14.9406C10.8767 12.8658 12.5588 11.1836 14.6336 11.1836ZM14.6336 17.3794C15.9805 17.3794 17.0724 16.2874 17.0724 14.9406C17.0724 13.5937 15.9805 12.5018 14.6336 12.5018C13.2868 12.5018 12.1948 13.5937 12.1948 14.9406C12.1948 16.2874 13.2868 17.3794 14.6336 17.3794Z" fill="#2A3E4C"/>
<path d="M10.7275 11.9122C10.2426 11.9122 9.84952 11.5191 9.84952 11.0342C9.84952 10.5493 10.2426 10.1562 10.7275 10.1562C11.2124 10.1562 11.6055 10.5493 11.6055 11.0342C11.6055 11.5191 11.2124 11.9122 10.7275 11.9122Z" fill="#2A3E4C"/>
</svg>
