<svg width="48" height="49" viewBox="0 0 48 49" fill="none" xmlns="http://www.w3.org/2000/svg">
<ellipse cx="23.5173" cy="24.3891" rx="23.5171" ry="24.3881" fill="#2A3E4C"/>
<path d="M23.6457 15.0719C20.5363 15.0719 20.1675 15.0834 18.9399 15.139C17.6705 15.1965 16.3633 15.4821 15.4385 16.3954C14.5049 17.3173 14.2244 18.5957 14.1662 19.853C14.1099 21.0653 14.0983 21.4295 14.0983 24.5C14.0983 27.5705 14.1099 27.9347 14.1662 29.147C14.2235 30.3938 14.5194 31.6971 15.4385 32.6046C16.3721 33.5265 17.6657 33.8035 18.9399 33.861C20.1675 33.9166 20.5363 33.9281 23.6457 33.9281C26.7551 33.9281 27.1238 33.9166 28.3515 33.861C29.6043 33.8045 30.9416 33.5055 31.8529 32.6046C32.7816 31.6875 33.067 30.3966 33.1252 29.147C33.1815 27.9347 33.1931 27.5705 33.1931 24.5C33.1931 21.4295 33.1815 21.0653 33.1252 19.853C33.0679 18.611 32.769 17.3 31.8529 16.3954C30.9213 15.4754 29.6218 15.1965 28.3515 15.139C27.1238 15.0834 26.7551 15.0719 23.6457 15.0719ZM23.6457 13C26.8084 13 27.2054 13.0134 28.4475 13.069C30.2478 13.1505 32.0354 13.645 33.3367 14.9301C34.643 16.22 35.1389 17.9814 35.2214 19.7582C35.2777 20.9848 35.2913 21.3768 35.2913 24.5C35.2913 27.6232 35.2777 28.0152 35.2214 29.2418C35.1389 31.0176 34.6362 32.7877 33.3367 34.0699C32.0315 35.3589 30.2448 35.8495 28.4475 35.931C27.2054 35.9866 26.8084 36 23.6457 36C20.4829 36 20.086 35.9866 18.8438 35.931C17.0446 35.8495 15.2551 35.3541 13.9546 34.0699C12.6474 32.779 12.1525 31.0186 12.07 29.2418C12.0137 28.0152 12.0001 27.6232 12.0001 24.5C12.0001 21.3768 12.0137 20.9848 12.07 19.7582C12.1525 17.9805 12.6542 16.2142 13.9546 14.9301C15.258 13.643 17.0494 13.1495 18.8438 13.069C20.086 13.0134 20.4829 13 23.6457 13Z" fill="#EDEFF1"/>
<path d="M23.6457 18C26.7216 18 29.2153 20.6865 29.2153 24C29.2153 27.3135 26.7216 30 23.6457 30C20.5699 30 18.0761 27.3135 18.0761 24C18.0761 20.6865 20.5699 18 23.6457 18ZM23.6457 27.8948C25.6424 27.8948 27.2612 26.1509 27.2612 24C27.2612 21.8491 25.6424 20.1052 23.6457 20.1052C21.6491 20.1052 20.0302 21.8491 20.0302 24C20.0302 26.1509 21.6491 27.8948 23.6457 27.8948Z" fill="#EDEFF1"/>
<path d="M17.5696 20C16.7307 20 16.0506 19.3284 16.0506 18.5C16.0506 17.6716 16.7307 17 17.5696 17C18.4085 17 19.0886 17.6716 19.0886 18.5C19.0886 19.3284 18.4085 20 17.5696 20Z" fill="#EDEFF1"/>
</svg>
