<svg width="24" height="25" viewBox="0 0 24 25" fill="none" xmlns="http://www.w3.org/2000/svg">
<g clip-path="url(#clip0_166_325)">
<path d="M12 0.349609C9.35398 0.35252 6.81712 1.40488 4.94598 3.27584C3.07484 5.14679 2.02222 7.68355 2.01904 10.3296C2.01904 12.8996 4.00904 16.9216 7.93404 22.2836C8.4013 22.9237 9.0131 23.4445 9.71964 23.8035C10.4262 24.1625 11.2075 24.3496 12 24.3496C12.7926 24.3496 13.5739 24.1625 14.2804 23.8035C14.987 23.4445 15.5988 22.9237 16.066 22.2836C19.991 16.9216 21.981 12.8996 21.981 10.3296C21.9779 7.68355 20.9252 5.14679 19.0541 3.27584C17.183 1.40488 14.6461 0.35252 12 0.349609ZM12 14.3076C11.2089 14.3076 10.4356 14.073 9.77776 13.6335C9.11997 13.194 8.60727 12.5692 8.30452 11.8383C8.00177 11.1074 7.92256 10.3032 8.0769 9.52725C8.23124 8.75132 8.6122 8.03859 9.17161 7.47918C9.73102 6.91977 10.4438 6.53881 11.2197 6.38447C11.9956 6.23013 12.7999 6.30934 13.5308 6.61209C14.2617 6.91484 14.8864 7.42753 15.3259 8.08533C15.7654 8.74312 16 9.51648 16 10.3076C16 11.3685 15.5786 12.3859 14.8285 13.136C14.0783 13.8862 13.0609 14.3076 12 14.3076Z" fill="#FFF5E7"/>
</g>
<defs>
<clipPath id="clip0_166_325">
<rect width="24" height="24" fill="white" transform="translate(0 0.306641)"/>
</clipPath>
</defs>
</svg>
