<svg width="23" height="24" viewBox="0 0 23 24" fill="none" xmlns="http://www.w3.org/2000/svg">
<g clip-path="url(#clip0_166_344)">
<path d="M22.9998 6.28602C22.9998 13.6077 13.2919 23.306 5.97978 23.306C4.37937 23.306 2.88437 22.7023 1.78228 21.6002L0.823949 20.4981C-0.287718 19.3864 -0.287718 17.5081 0.871866 16.3485C0.900616 16.3198 3.2102 14.5468 3.2102 14.5468C4.3602 13.4543 6.17145 13.4543 7.31187 14.5468L8.71103 15.6681C11.7777 14.3648 13.9531 12.1798 15.3523 9.00768L14.2406 7.60852C13.1385 6.4681 13.1385 4.64727 14.2406 3.50685C14.2406 3.50685 16.0135 1.19727 16.0423 1.16852C17.2019 0.00893226 19.0802 0.00893226 20.2398 1.16852L21.246 2.0406C22.396 3.18102 22.9998 4.67602 22.9998 6.27643V6.28602Z" fill="#FFF5E7"/>
</g>
<defs>
<clipPath id="clip0_166_344">
<rect width="23" height="23" fill="white" transform="translate(0 0.306641)"/>
</clipPath>
</defs>
</svg>
