<?xml version="1.0" encoding="UTF-8"?>
<svg id="Filled" xmlns="http://www.w3.org/2000/svg" version="1.1" viewBox="0 0 512 512">
  <!-- Generator: Adobe Illustrator 29.7.0, SVG Export Plug-In . SVG Version: 2.1.1 Build 138)  -->
  <defs>
    <style>
      .st0 {
        fill: #2a3e4c;
      }
    </style>
  </defs>
  <path class="st0" d="M28.31,264.53l75.95,55.47-28.84,89.32c-9.57,28.45.7,59.81,25.26,77.08,24.13,17.82,57.11,17.66,81.07-.41l74.26-54.66,74.28,54.59c30.63,22.53,73.72,15.96,96.25-14.66,13.12-17.83,16.86-40.88,10.06-61.94l-28.84-89.32,75.95-55.47c30.69-22.44,37.38-65.51,14.94-96.2-12.94-17.7-33.55-28.18-55.48-28.21h-93.29l-28.31-88.23c-11.61-36.21-50.36-56.15-86.57-44.54-21.17,6.79-37.76,23.38-44.54,44.54l-28.31,88.23h-93.21C30.91,140.17.13,171.04.18,209.06c.03,21.93,10.51,42.53,28.21,55.48h-.09Z"/>
</svg>