<svg width="51" height="50" viewBox="0 0 51 50" fill="none" xmlns="http://www.w3.org/2000/svg">
<g clip-path="url(#clip0_79_1374)">
<path d="M25.5 50.001C39.5833 50.001 51 38.8081 51 25.001C51 11.1939 39.5833 0.000976562 25.5 0.000976562C11.4167 0.000976562 0 11.1939 0 25.001C0 38.8081 11.4167 50.001 25.5 50.001Z" fill="#2A3E4C"/>
<path d="M29.355 37L22.5825 28.269L14.8475 37H10.5425L20.5875 25.6757L10 12H18.855L24.98 19.9876L32.05 12H36.3375L26.9575 22.5809L38 37H29.355Z" fill="#EDEFF1"/>
<path d="M15 14L30.6094 35H33L17.5664 14H15Z" fill="#2A3E4C"/>
</g>
<defs>
<clipPath id="clip0_79_1374">
<rect width="51" height="50" fill="white" transform="translate(0 0.000976562)"/>
</clipPath>
</defs>
</svg>
