<svg width="32" height="31" viewBox="0 0 32 31" fill="none" xmlns="http://www.w3.org/2000/svg">
<g clip-path="url(#clip0_166_329)">
<path d="M15.9001 30.3066C24.3501 30.3066 31.2001 23.5909 31.2001 15.3066C31.2001 7.02237 24.3501 0.306641 15.9001 0.306641C7.45014 0.306641 0.600098 7.02237 0.600098 15.3066C0.600098 23.5909 7.45014 30.3066 15.9001 30.3066Z" fill="#FFF5E7"/>
<path d="M19.7321 22.3445L15.6269 17.0927L10.9383 22.3445H8.32884L14.4176 15.5328L8 7.30664H13.3675L17.0801 12.1113L21.3656 7.30664H23.9645L18.2788 13.6712L24.9722 22.3445H19.7321Z" fill="#2A3E4C"/>
<path d="M11.0337 8.75195L20.4533 20.8155H21.8959L12.5824 8.75195H11.0337Z" fill="#EDEFF1"/>
</g>
<defs>
<clipPath id="clip0_166_329">
<rect width="30.6" height="30" fill="white" transform="translate(0.600098 0.306641)"/>
</clipPath>
</defs>
</svg>
